<?xml version="1.0" encoding="UTF-8" standalone="no"?>
<!DOCTYPE svg PUBLIC "-//W3C//DTD SVG 1.1//EN"
 "http://www.w3.org/Graphics/SVG/1.1/DTD/svg11.dtd">
<!-- Generated by graphviz version 5.0.0 (20220707.1540)
 -->
<!-- Title: dependencies Pages: 1 -->
<svg width="1846pt" height="247pt"
 viewBox="0.00 0.00 1846.00 246.80" xmlns="http://www.w3.org/2000/svg" xmlns:xlink="http://www.w3.org/1999/xlink">
<g id="graph0" class="graph" transform="scale(1 1) rotate(0) translate(4 242.8)">
<title>dependencies</title>
<polygon fill="white" stroke="transparent" points="-4,4 -4,-242.8 1842,-242.8 1842,4 -4,4"/>
<text text-anchor="middle" x="919" y="-8.2" font-family="sans-serif" font-size="14.00">dependencies</text>
<g id="clust1" class="cluster">
<title>cluster_AppModule</title>
<polygon fill="none" stroke="black" stroke-dasharray="1,5" points="8,-32.8 8,-230.8 1830,-230.8 1830,-32.8 8,-32.8"/>
</g>
<g id="clust16" class="cluster">
<title>cluster_AppModule_bootstrap</title>
<polygon fill="none" stroke="black" points="686,-170.8 686,-222.8 810,-222.8 810,-170.8 686,-170.8"/>
</g>
<g id="clust14" class="cluster">
<title>cluster_AppModule_imports</title>
<polygon fill="none" stroke="black" points="1574,-40.8 1574,-92.8 1822,-92.8 1822,-40.8 1574,-40.8"/>
</g>
<g id="clust2" class="cluster">
<title>cluster_AppModule_declarations</title>
<polygon fill="none" stroke="black" points="16,-40.8 16,-92.8 1566,-92.8 1566,-40.8 16,-40.8"/>
</g>
<!-- AddressAutoCompleteComponent -->
<g id="node1" class="node">
<title>AddressAutoCompleteComponent</title>
<polygon fill="#ffffb3" stroke="black" points="1557.65,-84.8 1348.35,-84.8 1348.35,-48.8 1557.65,-48.8 1557.65,-84.8"/>
<text text-anchor="middle" x="1453" y="-62.6" font-family="Times,serif" font-size="14.00">AddressAutoCompleteComponent</text>
</g>
<!-- AppModule -->
<g id="node12" class="node">
<title>AppModule</title>
<polygon fill="#8dd3c7" stroke="black" points="789.66,-149.8 786.66,-153.8 765.66,-153.8 762.66,-149.8 706.34,-149.8 706.34,-113.8 789.66,-113.8 789.66,-149.8"/>
<text text-anchor="middle" x="748" y="-127.6" font-family="Times,serif" font-size="14.00">AppModule</text>
</g>
<!-- AddressAutoCompleteComponent&#45;&gt;AppModule -->
<g id="edge1" class="edge">
<title>AddressAutoCompleteComponent&#45;&gt;AppModule</title>
<path fill="none" stroke="black" d="M1453,-84.83C1453,-105.57 1453,-136.8 1453,-136.8 1453,-136.8 799.73,-136.8 799.73,-136.8"/>
<polygon fill="black" stroke="black" points="799.73,-133.3 789.73,-136.8 799.73,-140.3 799.73,-133.3"/>
</g>
<!-- AppComponent -->
<g id="node2" class="node">
<title>AppComponent</title>
<polygon fill="#ffffb3" stroke="black" points="1329.94,-84.8 1224.06,-84.8 1224.06,-48.8 1329.94,-48.8 1329.94,-84.8"/>
<text text-anchor="middle" x="1277" y="-62.6" font-family="Times,serif" font-size="14.00">AppComponent</text>
</g>
<!-- AppComponent&#45;&gt;AppModule -->
<g id="edge2" class="edge">
<title>AppComponent&#45;&gt;AppModule</title>
<path fill="none" stroke="black" d="M1277,-84.91C1277,-104.14 1277,-131.8 1277,-131.8 1277,-131.8 799.95,-131.8 799.95,-131.8"/>
<polygon fill="black" stroke="black" points="799.95,-128.3 789.95,-131.8 799.95,-135.3 799.95,-128.3"/>
</g>
<!-- FooterComponent -->
<g id="node3" class="node">
<title>FooterComponent</title>
<polygon fill="#ffffb3" stroke="black" points="1205.88,-84.8 1088.12,-84.8 1088.12,-48.8 1205.88,-48.8 1205.88,-84.8"/>
<text text-anchor="middle" x="1147" y="-62.6" font-family="Times,serif" font-size="14.00">FooterComponent</text>
</g>
<!-- FooterComponent&#45;&gt;AppModule -->
<g id="edge3" class="edge">
<title>FooterComponent&#45;&gt;AppModule</title>
<path fill="none" stroke="black" d="M1147,-85.1C1147,-103.07 1147,-127.8 1147,-127.8 1147,-127.8 799.95,-127.8 799.95,-127.8"/>
<polygon fill="black" stroke="black" points="799.95,-124.3 789.95,-127.8 799.95,-131.3 799.95,-124.3"/>
</g>
<!-- HeaderComponent -->
<g id="node4" class="node">
<title>HeaderComponent</title>
<polygon fill="#ffffb3" stroke="black" points="1069.75,-84.8 948.25,-84.8 948.25,-48.8 1069.75,-48.8 1069.75,-84.8"/>
<text text-anchor="middle" x="1009" y="-62.6" font-family="Times,serif" font-size="14.00">HeaderComponent</text>
</g>
<!-- HeaderComponent&#45;&gt;AppModule -->
<g id="edge4" class="edge">
<title>HeaderComponent&#45;&gt;AppModule</title>
<path fill="none" stroke="black" d="M1009,-84.83C1009,-101.2 1009,-122.8 1009,-122.8 1009,-122.8 799.93,-122.8 799.93,-122.8"/>
<polygon fill="black" stroke="black" points="799.93,-119.3 789.93,-122.8 799.93,-126.3 799.93,-119.3"/>
</g>
<!-- ItemComponent -->
<g id="node5" class="node">
<title>ItemComponent</title>
<polygon fill="#ffffb3" stroke="black" points="930.49,-84.8 823.51,-84.8 823.51,-48.8 930.49,-48.8 930.49,-84.8"/>
<text text-anchor="middle" x="877" y="-62.6" font-family="Times,serif" font-size="14.00">ItemComponent</text>
</g>
<!-- ItemComponent&#45;&gt;AppModule -->
<g id="edge5" class="edge">
<title>ItemComponent&#45;&gt;AppModule</title>
<path fill="none" stroke="black" d="M877,-84.99C877,-99.98 877,-118.8 877,-118.8 877,-118.8 799.88,-118.8 799.88,-118.8"/>
<polygon fill="black" stroke="black" points="799.88,-115.3 789.88,-118.8 799.88,-122.3 799.88,-115.3"/>
</g>
<!-- LoginComponent -->
<g id="node6" class="node">
<title>LoginComponent</title>
<polygon fill="#ffffb3" stroke="black" points="805.27,-84.8 690.73,-84.8 690.73,-48.8 805.27,-48.8 805.27,-84.8"/>
<text text-anchor="middle" x="748" y="-62.6" font-family="Times,serif" font-size="14.00">LoginComponent</text>
</g>
<!-- LoginComponent&#45;&gt;AppModule -->
<g id="edge6" class="edge">
<title>LoginComponent&#45;&gt;AppModule</title>
<path fill="none" stroke="black" d="M761.94,-84.91C761.94,-84.91 761.94,-103.79 761.94,-103.79"/>
<polygon fill="black" stroke="black" points="758.44,-103.79 761.94,-113.79 765.44,-103.79 758.44,-103.79"/>
</g>
<!-- LoginComponent&#45;&gt;AppModule -->
<g id="edge7" class="edge">
<title>LoginComponent&#45;&gt;AppModule</title>
<path fill="none" stroke="black" d="M734.06,-84.91C734.06,-84.91 734.06,-103.79 734.06,-103.79"/>
<polygon fill="black" stroke="black" points="730.56,-103.79 734.06,-113.79 737.56,-103.79 730.56,-103.79"/>
</g>
<!-- MyItemComponent -->
<g id="node7" class="node">
<title>MyItemComponent</title>
<polygon fill="#ffffb3" stroke="black" points="672.44,-84.8 545.56,-84.8 545.56,-48.8 672.44,-48.8 672.44,-84.8"/>
<text text-anchor="middle" x="609" y="-62.6" font-family="Times,serif" font-size="14.00">MyItemComponent</text>
</g>
<!-- MyItemComponent&#45;&gt;AppModule -->
<g id="edge8" class="edge">
<title>MyItemComponent&#45;&gt;AppModule</title>
<path fill="none" stroke="black" d="M609,-85.04C609,-100.37 609,-119.8 609,-119.8 609,-119.8 696.3,-119.8 696.3,-119.8"/>
<polygon fill="black" stroke="black" points="696.3,-123.3 706.3,-119.8 696.3,-116.3 696.3,-123.3"/>
</g>
<!-- NotFoundComponent -->
<g id="node8" class="node">
<title>NotFoundComponent</title>
<polygon fill="#ffffb3" stroke="black" points="528.12,-84.8 389.88,-84.8 389.88,-48.8 528.12,-48.8 528.12,-84.8"/>
<text text-anchor="middle" x="459" y="-62.6" font-family="Times,serif" font-size="14.00">NotFoundComponent</text>
</g>
<!-- NotFoundComponent&#45;&gt;AppModule -->
<g id="edge9" class="edge">
<title>NotFoundComponent&#45;&gt;AppModule</title>
<path fill="none" stroke="black" d="M459,-84.83C459,-101.86 459,-124.8 459,-124.8 459,-124.8 696.29,-124.8 696.29,-124.8"/>
<polygon fill="black" stroke="black" points="696.29,-128.3 706.29,-124.8 696.29,-121.3 696.29,-128.3"/>
</g>
<!-- PostComponent -->
<g id="node9" class="node">
<title>PostComponent</title>
<polygon fill="#ffffb3" stroke="black" points="371.96,-84.8 266.04,-84.8 266.04,-48.8 371.96,-48.8 371.96,-84.8"/>
<text text-anchor="middle" x="319" y="-62.6" font-family="Times,serif" font-size="14.00">PostComponent</text>
</g>
<!-- PostComponent&#45;&gt;AppModule -->
<g id="edge10" class="edge">
<title>PostComponent&#45;&gt;AppModule</title>
<path fill="none" stroke="black" d="M319,-85.02C319,-103.63 319,-129.8 319,-129.8 319,-129.8 696.08,-129.8 696.08,-129.8"/>
<polygon fill="black" stroke="black" points="696.08,-133.3 706.08,-129.8 696.08,-126.3 696.08,-133.3"/>
</g>
<!-- RegisterComponent -->
<g id="node10" class="node">
<title>RegisterComponent</title>
<polygon fill="#ffffb3" stroke="black" points="247.99,-84.8 120.01,-84.8 120.01,-48.8 247.99,-48.8 247.99,-84.8"/>
<text text-anchor="middle" x="184" y="-62.6" font-family="Times,serif" font-size="14.00">RegisterComponent</text>
</g>
<!-- RegisterComponent&#45;&gt;AppModule -->
<g id="edge11" class="edge">
<title>RegisterComponent&#45;&gt;AppModule</title>
<path fill="none" stroke="black" d="M162.67,-84.84C162.67,-106.46 162.67,-139.8 162.67,-139.8 162.67,-139.8 695.9,-139.8 695.9,-139.8"/>
<polygon fill="black" stroke="black" points="695.9,-143.3 705.9,-139.8 695.9,-136.3 695.9,-143.3"/>
</g>
<!-- RegisterComponent&#45;&gt;AppModule -->
<g id="edge12" class="edge">
<title>RegisterComponent&#45;&gt;AppModule</title>
<path fill="none" stroke="black" d="M205.33,-85.02C205.33,-105.17 205.33,-134.8 205.33,-134.8 205.33,-134.8 696.32,-134.8 696.32,-134.8"/>
<polygon fill="black" stroke="black" points="696.32,-138.3 706.32,-134.8 696.32,-131.3 696.32,-138.3"/>
</g>
<!-- SearchPipe -->
<g id="node11" class="node">
<title>SearchPipe</title>
<polygon fill="#ffffb3" stroke="black" points="102.48,-84.8 23.52,-84.8 23.52,-48.8 102.48,-48.8 102.48,-84.8"/>
<text text-anchor="middle" x="63" y="-62.6" font-family="Times,serif" font-size="14.00">SearchPipe</text>
</g>
<!-- SearchPipe&#45;&gt;AppModule -->
<g id="edge13" class="edge">
<title>SearchPipe&#45;&gt;AppModule</title>
<path fill="none" stroke="black" d="M63,-84.89C63,-107.93 63,-144.8 63,-144.8 63,-144.8 696.18,-144.8 696.18,-144.8"/>
<polygon fill="black" stroke="black" points="696.18,-148.3 706.18,-144.8 696.18,-141.3 696.18,-148.3"/>
</g>
<!-- AppComponent  -->
<g id="node15" class="node">
<title>AppComponent </title>
<polygon fill="#80b1d3" stroke="black" points="802.44,-214.8 693.56,-214.8 693.56,-178.8 802.44,-178.8 802.44,-214.8"/>
<text text-anchor="middle" x="748" y="-192.6" font-family="Times,serif" font-size="14.00">AppComponent </text>
</g>
<!-- AppModule&#45;&gt;AppComponent  -->
<g id="edge16" class="edge">
<title>AppModule&#45;&gt;AppComponent </title>
<path fill="none" stroke="black" stroke-dasharray="1,5" d="M748,-149.91C748,-149.91 748,-168.79 748,-168.79"/>
<polygon fill="black" stroke="black" points="744.5,-168.79 748,-178.79 751.5,-168.79 744.5,-168.79"/>
</g>
<!-- AppRoutingModule -->
<g id="node13" class="node">
<title>AppRoutingModule</title>
<polygon fill="#8dd3c7" stroke="black" points="1814.28,-84.8 1811.28,-88.8 1790.28,-88.8 1787.28,-84.8 1685.72,-84.8 1685.72,-48.8 1814.28,-48.8 1814.28,-84.8"/>
<text text-anchor="middle" x="1750" y="-62.6" font-family="Times,serif" font-size="14.00">AppRoutingModule</text>
</g>
<!-- AppRoutingModule&#45;&gt;AppModule -->
<g id="edge14" class="edge">
<title>AppRoutingModule&#45;&gt;AppModule</title>
<path fill="none" stroke="black" d="M1750,-85.12C1750,-108.46 1750,-145.8 1750,-145.8 1750,-145.8 799.78,-145.8 799.78,-145.8"/>
<polygon fill="black" stroke="black" points="799.78,-142.3 789.78,-145.8 799.78,-149.3 799.78,-142.3"/>
</g>
<!-- ItemModule -->
<g id="node14" class="node">
<title>ItemModule</title>
<polygon fill="#8dd3c7" stroke="black" points="1667.71,-84.8 1664.71,-88.8 1643.71,-88.8 1640.71,-84.8 1582.29,-84.8 1582.29,-48.8 1667.71,-48.8 1667.71,-84.8"/>
<text text-anchor="middle" x="1625" y="-62.6" font-family="Times,serif" font-size="14.00">ItemModule</text>
</g>
<!-- ItemModule&#45;&gt;AppModule -->
<g id="edge15" class="edge">
<title>ItemModule&#45;&gt;AppModule</title>
<path fill="none" stroke="black" d="M1625,-85.09C1625,-107.01 1625,-140.8 1625,-140.8 1625,-140.8 799.71,-140.8 799.71,-140.8"/>
<polygon fill="black" stroke="black" points="799.71,-137.3 789.71,-140.8 799.71,-144.3 799.71,-137.3"/>
</g>
</g>
</svg>
