<?xml version="1.0" encoding="UTF-8" standalone="no"?>
<!DOCTYPE svg PUBLIC "-//W3C//DTD SVG 1.1//EN"
 "http://www.w3.org/Graphics/SVG/1.1/DTD/svg11.dtd">
<!-- Generated by graphviz version 5.0.0 (20220707.1540)
 -->
<!-- Title: dependencies Pages: 1 -->
<svg width="301pt" height="174pt"
 viewBox="0.00 0.00 301.00 173.80" xmlns="http://www.w3.org/2000/svg" xmlns:xlink="http://www.w3.org/1999/xlink">
<g id="graph0" class="graph" transform="scale(1 1) rotate(0) translate(4 169.8)">
<title>dependencies</title>
<polygon fill="white" stroke="transparent" points="-4,4 -4,-169.8 297,-169.8 297,4 -4,4"/>
<text text-anchor="middle" x="146.5" y="-8.2" font-family="sans-serif" font-size="14.00">dependencies</text>
<g id="clust1" class="cluster">
<title>cluster_ItemModule</title>
<polygon fill="none" stroke="black" stroke-dasharray="1,5" points="8,-32.8 8,-157.8 285,-157.8 285,-32.8 8,-32.8"/>
</g>
<g id="clust2" class="cluster">
<title>cluster_ItemModule_declarations</title>
<polygon fill="none" stroke="black" points="16,-40.8 16,-92.8 277,-92.8 277,-40.8 16,-40.8"/>
</g>
<!-- DetailsComponent -->
<g id="node1" class="node">
<title>DetailsComponent</title>
<polygon fill="#ffffb3" stroke="black" points="269.49,-84.8 148.51,-84.8 148.51,-48.8 269.49,-48.8 269.49,-84.8"/>
<text text-anchor="middle" x="209" y="-62.6" font-family="Times,serif" font-size="14.00">DetailsComponent</text>
</g>
<!-- ItemModule -->
<g id="node3" class="node">
<title>ItemModule</title>
<polygon fill="#8dd3c7" stroke="black" points="185.71,-149.8 182.71,-153.8 161.71,-153.8 158.71,-149.8 100.29,-149.8 100.29,-113.8 185.71,-113.8 185.71,-149.8"/>
<text text-anchor="middle" x="143" y="-127.6" font-family="Times,serif" font-size="14.00">ItemModule</text>
</g>
<!-- DetailsComponent&#45;&gt;ItemModule -->
<g id="edge1" class="edge">
<title>DetailsComponent&#45;&gt;ItemModule</title>
<path fill="none" stroke="black" d="M167.06,-84.91C167.06,-84.91 167.06,-103.79 167.06,-103.79"/>
<polygon fill="black" stroke="black" points="163.56,-103.79 167.06,-113.79 170.56,-103.79 163.56,-103.79"/>
</g>
<!-- MapComponent -->
<g id="node2" class="node">
<title>MapComponent</title>
<polygon fill="#ffffb3" stroke="black" points="130.49,-84.8 23.51,-84.8 23.51,-48.8 130.49,-48.8 130.49,-84.8"/>
<text text-anchor="middle" x="77" y="-62.6" font-family="Times,serif" font-size="14.00">MapComponent</text>
</g>
<!-- MapComponent&#45;&gt;ItemModule -->
<g id="edge2" class="edge">
<title>MapComponent&#45;&gt;ItemModule</title>
<path fill="none" stroke="black" d="M115.45,-84.91C115.45,-84.91 115.45,-103.79 115.45,-103.79"/>
<polygon fill="black" stroke="black" points="111.95,-103.79 115.45,-113.79 118.95,-103.79 111.95,-103.79"/>
</g>
</g>
</svg>
